<svg width="540" height="220" xmlns="http://www.w3.org/2000/svg"><style>rect { stroke: #000; stroke-width: 2; } rect.red,ellipse.red { fill: hsl(0,100%,80%); } rect.yellow,ellipse.yellow { fill: hsl(60,100%,80%); } rect.green,ellipse.green { fill: hsl(120,100%,80%); } rect.teal,ellipse.teal { fill: hsl(180,100%,80%); } rect.blue,ellipse.blue { fill: hsl(240,100%,80%); } rect.purple,ellipse.purple { fill: hsl(300,100%,80%); } .dot-red,.dot-green,.dot-blue { stroke-width:3; } .dot-red { stroke: hsl(0,100%,80%); fill: hsl(0,100%,95%); } .dot-green { stroke: hsl(120,100%,80%); fill: hsl(120,100%,95%); } .dot-blue { stroke: hsl(240,100%,80%); fill: hsl(240,100%,95%); } line, path { stroke-width: 2; stroke: #000; } text { text-anchor: middle; font-family: Helvetica, Arial, sans-serif; font-size: 14px; fill: #000; } ellipse { stroke-width: 2; stroke: #000; fill: #FFF } .order { font-size:18px; } .gray { fill: hsl(0,0%,90%); }</style><text y="23" x="137" class="order">Balanced</text><path class="dot-green" d="M10 30h255v180H10z"/><g transform="translate(30 50)"><ellipse ry="10" rx="10"/><text y="5">0</text></g><g transform="translate(80 50)"><path d="M0 0l25 25" fill="none" stroke-width="2"/><ellipse ry="10" rx="10"/><text y="5">0</text></g><g transform="translate(105 75)"><ellipse ry="10" rx="10"/><text y="5">1</text></g><g transform="translate(200 50)"><path d="M0 0l-45 25" fill="none" stroke-width="2"/><path d="M0 0l45 25" fill="none" stroke-width="2"/><ellipse ry="10" rx="10" class="gray"/></g><g transform="translate(155 75)"><path d="M0 0l25 25" fill="none" stroke-width="2"/><ellipse ry="10" rx="10"/><text y="5">1</text><g transform="translate(25 25)"><ellipse ry="10" rx="10"/><text y="5">2</text></g></g><g transform="translate(245 75)"><ellipse ry="10" rx="10"/><text y="5">1</text></g><g transform="translate(135 140)"><path d="M0 0l-45 25" fill="none" stroke-width="2"/><path d="M0 0l45 25" fill="none" stroke-width="2"/><ellipse ry="10" rx="10" class="gray"/></g><g transform="translate(90 165)"><path d="M0 0l-25 25" fill="none" stroke-width="2"/><path d="M0 0l25 25" fill="none" stroke-width="2"/><ellipse ry="10" rx="10" class="gray"/><g transform="translate(-25 25)"><ellipse ry="10" rx="10"/><text y="5">2</text></g><g transform="translate(25 25)"><ellipse ry="10" rx="10"/><text y="5">2</text></g></g><g transform="translate(180 165)"><path d="M0 0l-25 25" fill="none" stroke-width="2"/><path d="M0 0l25 25" fill="none" stroke-width="2"/><ellipse ry="10" rx="10" class="gray"/><g transform="translate(-25 25)"><ellipse ry="10" rx="10"/><text y="5">2</text></g><g transform="translate(25 25)"><ellipse ry="10" rx="10"/><text y="5">2</text></g></g><text y="23" x="402" class="order">Not balanced</text><path class="dot-red" d="M275 30h255v180H275z"/><g><g transform="translate(345 50)"><path d="M0 0l-25 25" fill="none" stroke-width="2"/><ellipse ry="10" rx="10"/><text y="5">0</text></g><g transform="translate(320 75)"><path d="M0 0l-25 25" fill="none" stroke-width="2"/><ellipse ry="10" rx="10"/><text y="5">1</text></g><g transform="translate(295 100)"><ellipse ry="10" rx="10"/><text y="5">2</text></g></g><g><g transform="translate(440 50)"><path d="M0 0l-45 25" fill="none" stroke-width="2"/><path d="M0 0l45 25" fill="none" stroke-width="2"/><ellipse ry="10" rx="10" class="gray"/></g><g transform="translate(395 75)"><ellipse ry="10" rx="10"/><text y="5">1</text></g><g transform="translate(485 75)"><path d="M0 0l-25 25" fill="none" stroke-width="2"/><path d="M0 0l25 25" fill="none" stroke-width="2"/><ellipse ry="10" rx="10" class="gray"/><g transform="translate(-25 25)"><path d="M0 0l25 25" fill="none" stroke-width="2"/><ellipse ry="10" rx="10"/><text y="5">2</text><g transform="translate(25 25)"><ellipse ry="10" rx="10"/><text y="5">3</text></g></g><g transform="translate(25 25)"><ellipse ry="10" rx="10"/><text y="5">2</text></g></g></g><g><g transform="translate(295 140)"><path d="M0 0l25 25" fill="none" stroke-width="2"/><ellipse ry="10" rx="10"/><text y="5">0</text></g><g transform="translate(320 165)"><path d="M0 0l-25 25" fill="none" stroke-width="2"/><ellipse ry="10" rx="10"/><text y="5">1</text><g transform="translate(-25 25)"><ellipse ry="10" rx="10"/><text y="5">2</text></g></g></g><g><g transform="translate(370 140)"><path d="M0 0l25 25" fill="none" stroke-width="2"/><ellipse ry="10" rx="10"/><text y="5">0</text></g><g transform="translate(395 165)"><path d="M0 0l25 25" fill="none" stroke-width="2"/><ellipse ry="10" rx="10"/><text y="5">1</text></g><g transform="translate(420 190)"><ellipse ry="10" rx="10"/><text y="5">2</text></g></g></svg>